<svg width="75" height="42" fill="none" xmlns="http://www.w3.org/2000/svg"><path d="M11.677 13.103h-.003a3.858 3.858 0 0 0-3.856 3.859v.002a3.858 3.858 0 0 0 3.856 3.859h.003a3.858 3.858 0 0 0 3.857-3.859v-.002a3.858 3.858 0 0 0-3.857-3.86ZM40.144 11.87a11.195 11.195 0 0 0-3.275-7.891A11.183 11.183 0 0 0 28.983.7a11.184 11.184 0 0 0-7.889 3.277 11.195 11.195 0 0 0-3.277 7.892v16.323s22.325-2.488 22.327-16.32v-.003ZM0 33.55a7.796 7.796 0 0 0 7.767 7.773 7.788 7.788 0 0 0 7.767-7.771V22.194S0 23.927 0 33.55Zm7.767 2.034a2.033 2.033 0 0 1-1.995-2.431 2.035 2.035 0 0 1 3.686-.734c.224.335.343.728.343 1.13a2.036 2.036 0 0 1-2.034 2.043v-.008ZM22.107 31.941v4.266h-.879V31.94h.88Zm1.7 1.823v.685h-1.94v-.685h1.94Zm.205-1.823v.689h-2.145v-.689h2.145Zm4.013 2.034v.202c0 .324-.044.615-.132.873a1.92 1.92 0 0 1-.372.659c-.16.18-.351.317-.574.413-.22.096-.466.144-.735.144-.268 0-.513-.048-.736-.144a1.649 1.649 0 0 1-.574-.413 1.93 1.93 0 0 1-.378-.66 2.696 2.696 0 0 1-.132-.872v-.203c0-.326.044-.617.132-.873a1.92 1.92 0 0 1 .372-.659c.162-.181.354-.32.575-.416.222-.096.467-.143.735-.143.27 0 .515.047.735.143.223.096.414.235.574.416.162.182.287.402.375.66.09.255.135.546.135.873Zm-.887.202v-.208c0-.227-.021-.426-.062-.598a1.295 1.295 0 0 0-.182-.434.784.784 0 0 0-.293-.263.838.838 0 0 0-.395-.091c-.149 0-.28.03-.396.09a.79.79 0 0 0-.29.264 1.333 1.333 0 0 0-.178.434 2.586 2.586 0 0 0-.062.598v.208c0 .224.02.423.062.597.04.172.101.318.181.437.08.117.178.206.293.266.115.061.247.091.396.091.148 0 .28-.03.395-.09a.786.786 0 0 0 .29-.267 1.37 1.37 0 0 0 .179-.437c.04-.174.061-.373.061-.597Zm3.74.914a.566.566 0 0 0-.035-.205.388.388 0 0 0-.122-.17 1.093 1.093 0 0 0-.255-.156 3.605 3.605 0 0 0-.425-.158 5.377 5.377 0 0 1-.551-.21 2.261 2.261 0 0 1-.457-.273 1.227 1.227 0 0 1-.31-.366 1.01 1.01 0 0 1-.112-.484 1 1 0 0 1 .117-.483c.078-.147.188-.272.328-.375.141-.106.307-.187.498-.243.194-.057.406-.085.636-.085.315 0 .59.056.823.17.235.113.416.268.545.465.131.198.197.423.197.677h-.873a.658.658 0 0 0-.08-.328.535.535 0 0 0-.234-.225.835.835 0 0 0-.393-.083.908.908 0 0 0-.38.07.507.507 0 0 0-.229.185.454.454 0 0 0-.076.258c0 .072.018.138.053.196a.594.594 0 0 0 .164.164c.072.051.16.1.266.144.106.045.228.089.367.132.232.07.436.15.612.237.178.088.326.187.445.296.12.11.21.233.27.372.06.139.09.296.09.472a1.024 1.024 0 0 1-.422.87c-.136.102-.3.179-.489.231a2.37 2.37 0 0 1-.635.08 2.41 2.41 0 0 1-.624-.082 1.897 1.897 0 0 1-.56-.255 1.285 1.285 0 0 1-.398-.434c-.1-.176-.15-.384-.15-.624h.882c0 .133.02.245.062.337a.562.562 0 0 0 .173.223.741.741 0 0 0 .269.123c.106.025.22.038.346.038a.937.937 0 0 0 .375-.065.462.462 0 0 0 .293-.436Zm3.385-3.15v4.266h-.877V31.94h.877Zm1.312 0v.689h-3.48v-.689h3.48Zm3.363 3.58v.686h-2.27v-.686h2.27Zm-1.983-3.58v4.266h-.88V31.94h.88Zm1.687 1.738v.668h-1.974v-.668h1.974Zm.293-1.738v.689h-2.267v-.689h2.267Zm.516 0h1.59c.327 0 .607.05.842.147.236.097.417.242.544.433.127.192.19.427.19.706 0 .229-.038.425-.116.59a1.101 1.101 0 0 1-.325.407 1.685 1.685 0 0 1-.49.257l-.278.147h-1.383l-.006-.686h1.029a.803.803 0 0 0 .383-.082.537.537 0 0 0 .229-.228.704.704 0 0 0 .079-.34.771.771 0 0 0-.076-.355.513.513 0 0 0-.232-.228.853.853 0 0 0-.39-.08h-.711v3.578h-.88V31.94Zm2.385 4.266-.973-1.901.929-.006.984 1.866v.04h-.94Zm4.614-1.52h-1.087V34h1.087a.89.89 0 0 0 .41-.082.526.526 0 0 0 .232-.235.86.86 0 0 0 0-.691.592.592 0 0 0-.232-.264.76.76 0 0 0-.41-.1h-.782v3.578h-.88V31.94h1.662c.334 0 .62.06.858.182.24.12.424.284.551.495.127.211.19.452.19.724 0 .275-.063.513-.19.715-.127.2-.31.356-.55.465-.239.11-.525.164-.859.164Zm5.068.834v.686h-2.27v-.686h2.27Zm-1.983-3.58v4.266h-.879V31.94h.879Zm1.687 1.738v.668h-1.974v-.668h1.974Zm.293-1.738v.689h-2.267v-.689h2.267Zm2.482 0v4.266h-.876V31.94h.876Zm1.312 0v.689h-3.48v-.689h3.48Zm3.364 3.58v.686h-2.27v-.686h2.27Zm-1.984-3.58v4.266h-.879V31.94h.88Zm1.688 1.738v.668h-1.975v-.668h1.975Zm.293-1.738v.689h-2.268v-.689h2.268Zm.515 0h1.591c.326 0 .607.05.84.147.237.097.419.242.546.433.127.192.19.427.19.706 0 .229-.039.425-.117.59a1.103 1.103 0 0 1-.325.407 1.686 1.686 0 0 1-.49.257l-.278.147H59.76l-.005-.686h1.028a.803.803 0 0 0 .384-.082.538.538 0 0 0 .228-.228.704.704 0 0 0 .08-.34.771.771 0 0 0-.077-.355.514.514 0 0 0-.231-.228.853.853 0 0 0-.39-.08h-.712v3.578h-.879V31.94Zm2.385 4.266-.973-1.901.93-.006.983 1.866v.04h-.94Zm3.68-1.116a.566.566 0 0 0-.035-.205.388.388 0 0 0-.123-.17 1.095 1.095 0 0 0-.255-.156 3.605 3.605 0 0 0-.425-.158 5.377 5.377 0 0 1-.55-.21 2.261 2.261 0 0 1-.458-.273 1.227 1.227 0 0 1-.31-.366 1.01 1.01 0 0 1-.112-.484 1 1 0 0 1 .117-.483c.079-.147.188-.272.329-.375.14-.106.306-.187.498-.243.193-.057.405-.085.635-.085.315 0 .59.056.823.17.235.113.416.268.545.465.131.198.197.423.197.677h-.873a.658.658 0 0 0-.08-.328.535.535 0 0 0-.234-.225.835.835 0 0 0-.392-.083.908.908 0 0 0-.381.07.507.507 0 0 0-.229.185.454.454 0 0 0-.076.258c0 .072.018.138.053.196a.594.594 0 0 0 .164.164c.072.051.161.1.266.144.106.045.228.089.367.132.232.07.436.15.612.237.178.088.326.187.445.296.12.11.21.233.27.372.06.139.09.296.09.472a1.024 1.024 0 0 1-.422.87c-.136.102-.299.179-.489.231a2.37 2.37 0 0 1-.635.08 2.41 2.41 0 0 1-.624-.082 1.897 1.897 0 0 1-.56-.255 1.285 1.285 0 0 1-.398-.434c-.1-.176-.15-.384-.15-.624h.882c0 .133.02.245.062.337a.562.562 0 0 0 .173.223.741.741 0 0 0 .27.123c.105.025.22.038.345.038a.937.937 0 0 0 .375-.065.462.462 0 0 0 .293-.436Z" fill="#2196F3"/></svg>